<?xml version="1.0" encoding="UTF-8"?>
<!DOCTYPE svg PUBLIC "-//W3C//DTD SVG 1.1//EN" "http://www.w3.org/Graphics/SVG/1.1/DTD/svg11.dtd">
<!-- Creator: CorelDRAW -->
<svg xmlns="http://www.w3.org/2000/svg" xml:space="preserve" width="6.82666in" height="6.82666in" style="shape-rendering:geometricPrecision; text-rendering:geometricPrecision; image-rendering:optimizeQuality; fill-rule:evenodd; clip-rule:evenodd"
viewBox="0 0 6.82666 6.82666"
 xmlns:xlink="http://www.w3.org/1999/xlink">
 <defs>
  <style type="text/css">
   <![CDATA[
    .fil4 {fill:none}
    .fil2 {fill:#333333}
    .fil0 {fill:#B38E85}
    .fil3 {fill:#FFD3B3}
    .fil1 {fill:#333333;fill-rule:nonzero}
   ]]>
  </style>
 </defs>
 <g id="Layer_x0020_1">
  <metadata id="CorelCorpID_0Corel-Layer"/>
  <polygon class="fil0" points="5.74665,1.64415 5.63467,1.56863 4.48,2.34666 4.69333,2.45333 4.8,2.88 5.86667,2.13333 5.91873,1.78547 "/>
  <path class="fil1" d="M3.58422 3.58573l0 1.71113c0,0.000905512 -0.000145669,0.00390551 -0.000444882,0.00915748 -0.0023937,0.0428189 -0.0210945,0.080752 -0.0500315,0.108075 -0.0288976,0.0272874 -0.0677283,0.0437992 -0.110413,0.0437992 -0.000818898,0 -0.00382283,-0.000145669 -0.0091811,-0.000444882l-2.2281 -0.124713c-0.0447323,-0.00250787 -0.0850472,-0.0227165 -0.113961,-0.053252 -0.0292244,-0.0308543 -0.0473622,-0.072315 -0.0473622,-0.116929l0 -1.71451c-0.0479843,-0.0414803 -0.0879449,-0.091689 -0.116996,-0.147587 -0.0346929,-0.066752 -0.0543976,-0.141831 -0.0543976,-0.220256 0,-0.00643701 0.000307087,-0.0150945 0.000909449,-0.0258976 0.00662598,-0.118417 0.0580787,-0.223083 0.137657,-0.29822 0.0795512,-0.0751063 0.186929,-0.120539 0.305445,-0.120539 0.0063622,0 0.0150197,0.000307087 0.0259961,0.000917323l1.97102 0.110323c0.127209,0.00711811 0.242512,0.0652717 0.325791,0.153217 0.0835827,0.0882598 0.135469,0.206602 0.135469,0.333693 0,0.0790236 -0.0200472,0.152799 -0.0553346,0.216744 -0.029126,0.0527795 -0.0687205,0.0987283 -0.116059,0.135291zm-0.159799 1.71113l-3.14961e-005 0c-5.90551e-005,0.000464567 -0.000169291,0.00140945 -0.000169291,0l0 -1.75154c-0.000326772,-0.0271693 0.0131969,-0.0538268 0.0380079,-0.069126l0.00015748 0.000259843c0.0407323,-0.025126 0.0745039,-0.0605079 0.0978937,-0.102894 0.0225315,-0.0408307 0.0353346,-0.0884134 0.0353346,-0.13987 0,-0.085 -0.0348858,-0.164346 -0.0910906,-0.223693 -0.0565039,-0.0596654 -0.134024,-0.0990866 -0.218917,-0.103839l-1.97102 -0.110323c-0.00352756,-0.00019685 -0.00929921,-0.000295276 -0.017248,-0.000295276 -0.0764843,0 -0.145386,0.0289449 -0.196067,0.0767913 -0.0506417,0.0478189 -0.0834055,0.114736 -0.0876575,0.190717 -0.000188976,0.00341339 -0.000287402,0.00912598 -0.000287402,0.0171496 0,0.0520512 0.0131417,0.102 0.0362717,0.146508 0.0234488,0.045122 0.0566339,0.0844685 0.096437,0.11476 0.0231811,0.0140118 0.038685,0.0394528 0.038685,0.0685157l0 1.75257c0,0.00251575 0.00114567,0.00498819 0.00298425,0.00692913 0.00214173,0.00226378 0.00468504,0.00374016 0.00708661,0.00387402l2.2281 0.124713 0.000433071 2.3622e-005 0 -3.14961e-005c-0.000472441,-5.90551e-005 -0.00145669,-0.000169291 0,-0.000169291 0.000653543,0 0.00100787,-2.3622e-005 0.00103543,-5.11811e-005l3.14961e-005 -0.000570866 2.3622e-005 -0.000409449zm0 0c1.5748e-005,-0.00034252 0,-0.000232283 -3.14961e-005,0l3.14961e-005 0zm-0.00109055 0.00123228c0.000334646,1.5748e-005 0.000224409,-3.93701e-006 0,-3.14961e-005l0 3.14961e-005z"/>
  <path class="fil1" d="M3.28188 2.74623c-0.0440079,-0.0010315 -0.0805315,0.0338071 -0.081563,0.077815 -0.0010315,0.0440079 0.0338071,0.0805315 0.077815,0.081563l0.420067 0.010185c0.0829291,0.00200787 0.158925,0.0404803 0.214811,0.0994961 0.0571732,0.060374 0.0926969,0.141992 0.0926969,0.228031 0,0.0514567 -0.0128031,0.0990394 -0.0353346,0.13987 -0.0233898,0.0423858 -0.0571614,0.0777677 -0.0978937,0.102894l-0.00015748 -0.000259843c-0.024811,0.0152992 -0.0383346,0.0419567 -0.0380079,0.069126l0 1.75154 7.87402e-006 0.000665354c-0.000614173,0.000169291 -0.00169291,0.000267717 -0.00318504,0.000267717l-0.000275591 0 0 -3.93701e-006c-0.00232283,-6.69291e-005 -0.00462598,-2.3622e-005 -0.00690551,0.000106299 -0.0485748,-0.00128346 -0.104146,-0.00234252 -0.159728,-0.00338976 -0.111394,-0.0021063 -0.222807,-0.00422047 -0.293929,-0.00906693 -0.0440079,-0.00293307 -0.0820669,0.0303701 -0.085,0.074378 -0.00293307,0.0440079 0.0303701,0.0820669 0.074378,0.085 0.0680039,0.00463386 0.185035,0.00685433 0.302047,0.00906693 0.053563,0.00101181 0.107157,0.0020315 0.157965,0.00337402 0.00220866,0.000244094 0.00443701,0.000405512 0.00669291,0.000468504l7.87402e-006 -0.000287402 4.33071e-005 0 0 7.87402e-006c0.00823228,0.000228346 -0.000417323,0.000346457 0.00470472,0.000346457 0.0431457,0 0.0828346,-0.0165472 0.112453,-0.044252 0.0279882,-0.0261732 0.0464094,-0.0619094 0.0498543,-0.10276 0.0005,-0.00343701 0.000783465,-0.00693701 0.000830709,-0.0105l-3.93701e-005 0c4.72441e-005,-0.00113386 7.87402e-005,-0.00227559 7.87402e-005,-0.00342126l0 -1.71113c0.0473386,-0.036563 0.0869331,-0.0825118 0.116059,-0.135291 0.0352874,-0.0639449 0.0553346,-0.137717 0.0553346,-0.216744 0,-0.127776 -0.0525315,-0.248752 -0.137075,-0.338031 -0.0835472,-0.0882244 -0.198972,-0.145783 -0.326685,-0.148874l-0.420067 -0.010185zm0.549256 2.56147l0 -6.29921e-005 -0.000279528 -1.5748e-005 -3.93701e-006 7.08661e-005 0.000283465 7.87402e-006zm0 0c0.00266929,7.48031e-005 0.00143701,1.5748e-005 0,-6.29921e-005l0 6.29921e-005z"/>
  <path class="fil1" d="M2.13882 2.72823c-0.000744094,-0.00869685 -0.0024252,-0.148307 -0.0024252,-0.157098 0,-0.00805512 9.84252e-005,-0.0137126 0.000279528,-0.0170236 0.00422047,-0.075378 0.0367126,-0.14176 0.0869488,-0.189193 0.0502638,-0.0474606 0.118622,-0.0761732 0.194516,-0.0761732 0.00798031,0 0.0136969,9.84252e-005 0.017126,0.000287402l1.97102 0.110327c0.0842835,0.00471654 0.161272,0.0438661 0.217398,0.103138 0.055815,0.0589331 0.0904646,0.137728 0.0904646,0.22213 0,0.0510669 -0.0127008,0.0982795 -0.0350512,0.13878 -0.0232008,0.0420512 -0.0567047,0.0771417 -0.0970984,0.102059l-0.000161417 -0.00026378c-0.0254409,0.0156929 -0.0393425,0.0430079 -0.0390827,0.0708661l0 1.75061 -0.613642 -0.0350787 0 0.164402 0.605717 0.0346339c0.00548031,0.000299213 0.00858661,0.000452756 0.00930709,0.000452756 0.0432795,0 0.0826535,-0.0167362 0.111957,-0.0444173 0.0293504,-0.0277047 0.048311,-0.0661732 0.0507441,-0.109594 0.000299213,-0.00536614 0.000452756,-0.00847638 0.000452756,-0.0092874l0 -1.71003c0.0471929,-0.0366417 0.086685,-0.0825827 0.11578,-0.135303 0.0354646,-0.0642756 0.0556142,-0.138421 0.0556142,-0.217835 0,-0.127693 -0.0521299,-0.246583 -0.136098,-0.335252 -0.0836614,-0.0883465 -0.199496,-0.146764 -0.327303,-0.153913l-1.97102 -0.110323c-0.0110709,-0.00061811 -0.0197874,-0.000929134 -0.026122,-0.000929134 -0.119122,0 -0.227039,0.0456654 -0.306996,0.121161 -0.0799961,0.0755315 -0.131705,0.180724 -0.138366,0.299744 -0.000606299,0.0109016 -0.000917323,0.0196181 -0.000917323,0.0260197 0,0.00567323 0.00140945,0.142189 0.00161024,0.147843l0.16535 0.00925591zm2.40531 2.05852l0 -3.54331e-005 -0.000125984 -1.5748e-005 -3.93701e-005 4.33071e-005 0.000165354 7.87402e-006zm0 0c0.000574803,3.14961e-005 0.000354331,3.93701e-006 0,-3.54331e-005l0 3.54331e-005z"/>
  <path class="fil1" d="M3.54106 1.35956c-0.0440079,-0.00241339 -0.0816496,0.0313071 -0.084063,0.075315 -0.00241339,0.0440079 0.0313071,0.0816496 0.075315,0.084063l1.97102 0.110323c0.0848898,0.00474803 0.162413,0.0441693 0.218917,0.103835 0.0562047,0.0593465 0.0910906,0.138693 0.0910906,0.223693 0,0.0514567 -0.0128031,0.0990394 -0.0353346,0.13987 -0.0233898,0.0423898 -0.0571654,0.0777677 -0.0978937,0.102894l-0.00015748 -0.000255906c-0.0247402,0.0152598 -0.0382598,0.0418189 -0.0380079,0.0689094l0 1.75175c0,0.0441811 0.0358189,0.08 0.08,0.08 0.0441811,0 0.08,-0.0358189 0.08,-0.08l0 -1.71113c0.0473425,-0.036563 0.0869331,-0.0825118 0.116059,-0.135291 0.0352874,-0.0639449 0.0553346,-0.13772 0.0553346,-0.216744 0,-0.127091 -0.0518858,-0.245433 -0.135469,-0.333693 -0.0832795,-0.087937 -0.198583,-0.146098 -0.325791,-0.153213l-1.97102 -0.110323z"/>
  <path class="fil1" d="M2.21367 2.17612c-0.0372756,0.0234685 -0.0484685,0.0727244 -0.025,0.11 0.0234685,0.0372756 0.0727244,0.0484685 0.11,0.025l1.28051 -0.804374c0.0372756,-0.0234685 0.0484685,-0.0727244 0.025,-0.11 -0.0234685,-0.0372756 -0.0727244,-0.0484685 -0.11,-0.025l-1.28051 0.804374z"/>
  <path class="fil1" d="M4.40512 2.2545c-0.0369331,0.0239882 -0.0474252,0.073378 -0.023437,0.110311 0.0239882,0.0369331 0.073378,0.0474252 0.110311,0.023437l1.16196 -0.752043c0.0369331,-0.0239882 0.0474252,-0.073378 0.023437,-0.110311 -0.0239882,-0.0369331 -0.073378,-0.0474252 -0.110311,-0.023437l-1.16196 0.752043z"/>
  <path class="fil1" d="M4.57939 2.96991c-0.0360669,0.0251969 -0.0448819,0.0748701 -0.019685,0.110937 0.0251969,0.0360669 0.0748701,0.0448819 0.110937,0.019685l1.09692 -0.767843c0.0360669,-0.0251969 0.0448819,-0.0748701 0.019685,-0.110937 -0.0251969,-0.0360669 -0.0748701,-0.0448819 -0.110937,-0.019685l-1.09692 0.767843z"/>
  <path class="fil1" d="M4.55037 4.79194c-0.035378,0.0262323 -0.0427953,0.076185 -0.016563,0.111563 0.0262323,0.035378 0.076185,0.0427953 0.111563,0.016563l1.12407 -0.836055c0.035378,-0.0262323 0.0427953,-0.076185 0.016563,-0.111563 -0.0262323,-0.035378 -0.076185,-0.0427953 -0.111563,-0.016563l-1.12407 0.836055z"/>
  <circle class="fil2" cx="1.45083" cy="3.24855" r="0.0822701"/>
  <circle class="fil2" cx="1.80732" cy="3.11143" r="0.0822701"/>
  <circle class="fil2" cx="2.1364" cy="3.38566" r="0.0822701"/>
  <circle class="fil2" cx="2.41063" cy="3.16627" r="0.0822701"/>
  <circle class="fil2" cx="2.93387" cy="3.35756" r="0.0822701"/>
  <circle class="fil2" cx="3.28816" cy="3.11143" r="0.0822701"/>
  <circle class="fil2" cx="3.12362" cy="3.82442" r="0.0822701"/>
  <circle class="fil2" cx="2.57517" cy="3.65989" r="0.0822701"/>
  <circle class="fil2" cx="2.05191" cy="3.79676" r="0.0822701"/>
  <circle class="fil2" cx="1.69763" cy="3.5502" r="0.0822701"/>
  <circle class="fil2" cx="1.42341" cy="4.04381" r="0.0822701"/>
  <circle class="fil2" cx="1.94444" cy="4.18092" r="0.0822701"/>
  <circle class="fil2" cx="2.46547" cy="4.04381" r="0.0822701"/>
  <circle class="fil2" cx="2.90424" cy="4.26319" r="0.0822701"/>
  <circle class="fil2" cx="3.23332" cy="4.42773" r="0.0822701"/>
  <circle class="fil2" cx="3.17847" cy="4.86649" r="0.0822701"/>
  <circle class="fil2" cx="2.90424" cy="4.64711" r="0.0822701"/>
  <circle class="fil2" cx="2.46547" cy="4.48257" r="0.0822701"/>
  <circle class="fil2" cx="1.64279" cy="4.48257" r="0.0822701"/>
  <circle class="fil2" cx="1.42341" cy="4.86649" r="0.0822701"/>
  <circle class="fil2" cx="1.80732" cy="5.03103" r="0.0822701"/>
  <circle class="fil2" cx="2.02671" cy="4.70195" r="0.0822701"/>
  <circle class="fil2" cx="2.24609" cy="5.03103" r="0.0822701"/>
  <circle class="fil2" cx="2.90424" cy="5.14072" r="0.0822701"/>
  <circle class="fil2" cx="2.57517" cy="4.86649" r="0.0822701"/>
  <path class="fil0" d="M2.58243 2.13287l1.83285 0.102591c0.00578346,0.000322835 0.0115433,0.000751969 0.0172756,0.00128346l0.94913 -0.614295 -1.82415 -0.102102 -0.975106 0.612524z"/>
  <path class="fil3" d="M4.40628 2.39936l-1.97102 -0.110327c-0.00342913,-0.000188976 -0.00914567,-0.000287402 -0.017126,-0.000287402 -0.0758937,0 -0.144252,0.0287126 -0.194516,0.0761732 -0.0502362,0.0474331 -0.0827283,0.113815 -0.0869488,0.189193 -0.000181102,0.00331102 -0.000279528,0.0089685 -0.000279528,0.0170236 0,0.00570866 0.000708661,0.0665512 0.00140945,0.110913l1.1487 0.0642992 0.415437 0.0100709c0.127713,0.00309055 0.243138,0.0606496 0.326685,0.148874 0.0845433,0.0892795 0.137075,0.210256 0.137075,0.338031 0,0.0790276 -0.0200472,0.152799 -0.0553346,0.216744 -0.029126,0.0527795 -0.0687205,0.0987283 -0.116059,0.135291l0 1.15997 0.548437 0.0313504 0 -1.75061c-0.000259843,-0.0278583 0.0136417,-0.0551732 0.0390827,-0.0708661l0.000161417 0.00026378c0.0403937,-0.0249173 0.0738976,-0.0600079 0.0970984,-0.102059 0.0223504,-0.0405 0.0350512,-0.0877126 0.0350512,-0.13878 0,-0.0844016 -0.0346496,-0.163197 -0.0904646,-0.22213 -0.056126,-0.0592717 -0.133114,-0.0984213 -0.217398,-0.103138z"/>
  <path class="fil0" d="M4.00571 3.24332c0,-0.0860394 -0.0355236,-0.167657 -0.0926969,-0.228031 -0.0558858,-0.0590157 -0.131882,-0.0974882 -0.214811,-0.0994961l-0.0650945 -0.00157874c0.0759528,0.0865551 0.122508,0.199091 0.122508,0.319476 0,0.0790236 -0.0200472,0.152799 -0.0553346,0.216744 -0.029126,0.0527795 -0.0687205,0.0987283 -0.116059,0.135291l0 1.71113c0,0.000685039 -8.26772e-005,0.00256299 -0.000251969,0.00570866 0.026374,0.000547244 0.0533189,0.00105906 0.0802598,0.00156693 0.0555827,0.00104724 0.111154,0.0021063 0.159728,0.00338976 0.00227953,-0.000129921 0.00458268,-0.000173228 0.00690551,-0.000102362l0.000275591 0c0.00149213,0 0.00257087,-9.84252e-005 0.00318504,-0.000267717l-7.87402e-006 -0.000665354 0 -1.75154c-0.000326772,-0.0271693 0.0131969,-0.0538268 0.0380079,-0.069126l0.00015748 0.000259843c0.0407323,-0.025126 0.0745039,-0.0605079 0.0978937,-0.102894 0.0225315,-0.0408307 0.0353346,-0.0884134 0.0353346,-0.13987z"/>
  <path class="fil3" d="M3.56028 3.37356c0.0225315,-0.0408307 0.0353346,-0.0884134 0.0353346,-0.13987 0,-0.085 -0.0348858,-0.164346 -0.0910906,-0.223693 -0.0565039,-0.0596654 -0.134024,-0.0990866 -0.218917,-0.103839l-1.97102 -0.110323c-0.00352756,-0.00019685 -0.00929921,-0.000295276 -0.017248,-0.000295276 -0.0764843,0 -0.145386,0.0289449 -0.196067,0.0767913 -0.0506417,0.0478189 -0.0834055,0.114736 -0.0876575,0.190717 -0.000188976,0.00341339 -0.000287402,0.00912598 -0.000287402,0.0171496 0,0.0520512 0.0131417,0.102 0.0362717,0.146508 0.0234488,0.045122 0.0566339,0.0844685 0.096437,0.11476 0.0231811,0.0140118 0.038685,0.0394528 0.038685,0.0685157l0 1.75257c0,0.00251575 0.00114567,0.00498819 0.00298425,0.00692913 0.00214173,0.00226378 0.00468504,0.00374016 0.00708661,0.00387402l2.17155 0.121547c0.00131496,1.9685e-005 0.00263386,7.87402e-005 0.00395669,0.000165354 0.00179134,0.000122047 0.0036063,0.000244094 0.00544488,0.000362205l0.0311929 0.00174409c1.5748e-005,0 3.14961e-005,0 4.72441e-005,3.93701e-006 0.00512598,0.000248031 0.010378,0.000492126 0.015752,0.000724409 0.000122047,-7.87402e-006 0.000311024,-1.1811e-005 0.000594488,-1.1811e-005l0.00103543 -5.11811e-005 3.14961e-005 -0.000570866 -7.87402e-006 -0.000409449c-5.90551e-005,0.000464567 -0.000169291,0.00140945 -0.000169291,0l0 -1.75154c-0.000326772,-0.0271693 0.0131969,-0.0538268 0.0380079,-0.069126l0.00015748 0.000259843c0.0407323,-0.025126 0.0745039,-0.0605079 0.0978937,-0.102894zm-0.18985 -0.262134c0,0.0454409 -0.0368346,0.0822717 -0.0822717,0.0822717 -0.045437,0 -0.0822677,-0.0368307 -0.0822677,-0.0822717 0,-0.045437 0.0368307,-0.0822677 0.0822677,-0.0822677 0.045437,0 0.0822717,0.0368307 0.0822717,0.0822677zm-0.246807 0.630724c0.045437,0 0.0822677,0.0368307 0.0822677,0.0822677 0,0.045437 -0.0368307,0.0822717 -0.0822677,0.0822717 -0.045437,0 -0.0822717,-0.0368346 -0.0822717,-0.0822717 0,-0.045437 0.0368346,-0.0822677 0.0822717,-0.0822677zm-0.219382 1.3163c0.045437,0 0.0822717,0.0368307 0.0822717,0.0822717 0,0.045437 -0.0368346,0.0822677 -0.0822717,0.0822677 -0.045437,0 -0.0822677,-0.0368307 -0.0822677,-0.0822677 0,-0.0454409 0.0368307,-0.0822717 0.0822677,-0.0822717zm0 -0.49361c0.045437,0 0.0822717,0.0368307 0.0822717,0.0822677 0,0.0454409 -0.0368346,0.0822717 -0.0822717,0.0822717 -0.045437,0 -0.0822677,-0.0368307 -0.0822677,-0.0822717 0,-0.045437 0.0368307,-0.0822677 0.0822677,-0.0822677zm0.329075 -0.219382c0.045437,0 0.0822717,0.0368346 0.0822717,0.0822717 0,0.045437 -0.0368346,0.0822677 -0.0822717,0.0822677 -0.045437,0 -0.0822677,-0.0368307 -0.0822677,-0.0822677 0,-0.045437 0.0368307,-0.0822717 0.0822677,-0.0822717zm-0.0548465 0.438764c0.045437,0 0.0822717,0.0368346 0.0822717,0.0822717 0,0.045437 -0.0368346,0.0822717 -0.0822717,0.0822717 -0.045437,0 -0.0822717,-0.0368346 -0.0822717,-0.0822717 0,-0.045437 0.0368346,-0.0822717 0.0822717,-0.0822717zm-0.274228 -0.603299c0.045437,0 0.0822717,0.0368307 0.0822717,0.0822677 0,0.0454409 -0.0368346,0.0822717 -0.0822717,0.0822717 -0.045437,0 -0.0822677,-0.0368307 -0.0822677,-0.0822717 0,-0.045437 0.0368307,-0.0822677 0.0822677,-0.0822677zm-0.329075 0.603299c0.0454409,0 0.0822717,0.0368346 0.0822717,0.0822717 0,0.045437 -0.0368307,0.0822717 -0.0822717,0.0822717 -0.045437,0 -0.0822677,-0.0368346 -0.0822677,-0.0822717 0,-0.045437 0.0368307,-0.0822717 0.0822677,-0.0822717zm0 -1.20661c0.0454409,0 0.0822717,0.0368346 0.0822717,0.0822717 0,0.045437 -0.0368307,0.0822677 -0.0822717,0.0822677 -0.045437,0 -0.0822677,-0.0368307 -0.0822677,-0.0822677 0,-0.045437 0.0368307,-0.0822717 0.0822677,-0.0822717zm-0.329071 1.37115c0.045437,0 0.0822677,0.0368307 0.0822677,0.0822677 0,0.0454409 -0.0368307,0.0822717 -0.0822677,0.0822717 -0.0454409,0 -0.0822717,-0.0368307 -0.0822717,-0.0822717 0,-0.045437 0.0368307,-0.0822677 0.0822717,-0.0822677zm0.219378 -0.548461c0.045437,0 0.0822717,0.0368346 0.0822717,0.0822717 0,0.045437 -0.0368346,0.0822717 -0.0822717,0.0822717 -0.045437,0 -0.0822677,-0.0368346 -0.0822677,-0.0822717 0,-0.045437 0.0368307,-0.0822717 0.0822677,-0.0822717zm0 -0.438764c0.045437,0 0.0822717,0.0368346 0.0822717,0.0822717 0,0.045437 -0.0368346,0.0822677 -0.0822717,0.0822677 -0.045437,0 -0.0822677,-0.0368307 -0.0822677,-0.0822677 0,-0.045437 0.0368307,-0.0822717 0.0822677,-0.0822717zm-0.438764 0.65815c0.045437,0 0.0822717,0.0368307 0.0822717,0.0822717 0,0.045437 -0.0368346,0.0822677 -0.0822717,0.0822677 -0.045437,0 -0.0822717,-0.0368307 -0.0822717,-0.0822677 0,-0.0454409 0.0368346,-0.0822717 0.0822717,-0.0822717zm0.0252047 -0.905193c0.045437,0 0.0822677,0.0368307 0.0822677,0.0822717 0,0.045437 -0.0368307,0.0822677 -0.0822677,0.0822677 -0.0454409,0 -0.0822717,-0.0368307 -0.0822717,-0.0822677 0,-0.0454409 0.0368307,-0.0822717 0.0822717,-0.0822717zm-0.244591 1.23427c0.0454409,0 0.0822717,0.0368307 0.0822717,0.0822677 0,0.0454409 -0.0368307,0.0822717 -0.0822717,0.0822717 -0.045437,0 -0.0822677,-0.0368307 -0.0822677,-0.0822717 0,-0.045437 0.0368307,-0.0822677 0.0822677,-0.0822677zm0.137118 -0.850106c0.045437,0 0.0822677,0.0368307 0.0822677,0.0822677 0,0.045437 -0.0368307,0.0822717 -0.0822677,0.0822717 -0.045437,0 -0.0822717,-0.0368346 -0.0822717,-0.0822717 0,-0.045437 0.0368346,-0.0822677 0.0822717,-0.0822677zm-0.521035 0.685567c0.0454409,0 0.0822717,0.0368346 0.0822717,0.0822717 0,0.045437 -0.0368307,0.0822717 -0.0822717,0.0822717 -0.045437,0 -0.0822677,-0.0368346 -0.0822677,-0.0822717 0,-0.045437 0.0368307,-0.0822717 0.0822677,-0.0822717zm0.219382 -0.383921c0.045437,0 0.0822717,0.0368346 0.0822717,0.0822717 0,0.045437 -0.0368346,0.0822717 -0.0822717,0.0822717 -0.045437,0 -0.0822717,-0.0368346 -0.0822717,-0.0822717 0,-0.045437 0.0368346,-0.0822717 0.0822717,-0.0822717zm-0.219382 -0.438764c0.0454409,0 0.0822717,0.0368346 0.0822717,0.0822717 0,0.045437 -0.0368307,0.0822677 -0.0822717,0.0822677 -0.045437,0 -0.0822677,-0.0368307 -0.0822677,-0.0822677 0,-0.045437 0.0368307,-0.0822717 0.0822677,-0.0822717zm0.274228 -0.49361c0.045437,0 0.0822717,0.0368307 0.0822717,0.0822717 0,0.045437 -0.0368346,0.0822677 -0.0822717,0.0822677 -0.045437,0 -0.0822677,-0.0368307 -0.0822677,-0.0822677 0,-0.0454409 0.0368307,-0.0822717 0.0822677,-0.0822717zm1.23623 -0.192634c0.045437,0 0.0822677,0.0368307 0.0822677,0.0822677 0,0.0454409 -0.0368307,0.0822717 -0.0822677,0.0822717 -0.045437,0 -0.0822717,-0.0368307 -0.0822717,-0.0822717 0,-0.045437 0.0368346,-0.0822677 0.0822717,-0.0822677zm-0.523236 -0.191287c0.045437,0 0.0822717,0.0368307 0.0822717,0.0822717 0,0.045437 -0.0368346,0.0822677 -0.0822717,0.0822677 -0.045437,0 -0.0822717,-0.0368307 -0.0822717,-0.0822677 0,-0.0454409 0.0368346,-0.0822717 0.0822717,-0.0822717zm-0.274232 0.219386c0.045437,0 0.0822717,0.0368307 0.0822717,0.0822677 0,0.045437 -0.0368346,0.0822717 -0.0822717,0.0822717 -0.045437,0 -0.0822677,-0.0368346 -0.0822677,-0.0822717 0,-0.045437 0.0368307,-0.0822677 0.0822677,-0.0822677zm-0.329075 -0.274228c0.0454409,0 0.0822717,0.0368307 0.0822717,0.0822677 0,0.0454409 -0.0368307,0.0822717 -0.0822717,0.0822717 -0.045437,0 -0.0822677,-0.0368307 -0.0822677,-0.0822717 0,-0.045437 0.0368307,-0.0822677 0.0822677,-0.0822677zm-0.356492 0.137114c0.045437,0 0.0822677,0.0368346 0.0822677,0.0822717 0,0.045437 -0.0368307,0.0822677 -0.0822677,0.0822677 -0.0454409,0 -0.0822717,-0.0368307 -0.0822717,-0.0822677 0,-0.045437 0.0368307,-0.0822717 0.0822717,-0.0822717z"/>
  <path class="fil0" d="M4.70729 3.07776l0 1.59746 0.93465 -0.695169 0 -1.55943 -0.912488 0.638744c-0.0071811,0.0063622 -0.0145709,0.0124961 -0.0221614,0.0183898z"/>
 </g>
 <rect class="fil4" width="6.82666" height="6.82666"/>
</svg>
