<svg xmlns="http://www.w3.org/2000/svg" viewBox="0 0 64 64"><defs><style>.cls-1{isolation:isolate;}.cls-2,.cls-9{fill:#fff;}.cls-3{fill:#ff4000;}.cls-4,.cls-6{fill:none;}.cls-5{fill:red;}.cls-6{stroke:#000;stroke-linecap:round;stroke-linejoin:round;stroke-width:2px;}.cls-7{opacity:0.25;mix-blend-mode:multiply;}.cls-8,.cls-9{mix-blend-mode:overlay;}</style></defs><title>Icon Color</title><g class="cls-1"><g id="Layer_1" data-name="Layer 1"><g id="Vector"><path class="cls-2" d="M56.94,32.84a3.4,3.4,0,0,1-3.4,3.4,5.09,5.09,0,0,1-.55,0l0,0H10l0,0a3.4,3.4,0,0,1,.42-6.78h.09a5.2,5.2,0,0,1,5.18-6.16,5,5,0,0,1,1.4.21,2.93,2.93,0,0,1-.1-.67,2.49,2.49,0,0,1,1.49-2.27l1.2,2.24a2,2,0,0,0,1.82,1.09,2.17,2.17,0,0,0,1-.24,2.08,2.08,0,0,0,2.19-1.95l.2-3.47a4.14,4.14,0,0,1,2,.84,3.87,3.87,0,0,1,3.84-3.52,3.91,3.91,0,0,1,1.32.25,3.71,3.71,0,0,1,1.3-.25,3.87,3.87,0,0,1,3.84,3.52,4,4,0,0,1,2.48-.87,4,4,0,0,1,3.7,2.45A2.46,2.46,0,0,1,47,22.82a2.93,2.93,0,0,1-.1.67,5.08,5.08,0,0,1,1.42-.21,5.26,5.26,0,0,1,5.25,5.26,4.43,4.43,0,0,1-.09.9h.09A3.41,3.41,0,0,1,56.94,32.84Z"/><path class="cls-2" d="M7.57,36.24H56.44a0,0,0,0,1,0,0V46.58A11.24,11.24,0,0,1,45.2,57.82H18.81A11.24,11.24,0,0,1,7.57,46.58V36.24A0,0,0,0,1,7.57,36.24Z"/><path class="cls-2" d="M16.7,57.82H47.3a0,0,0,0,1,0,0V59.4a3.42,3.42,0,0,1-3.42,3.42H20.12A3.42,3.42,0,0,1,16.7,59.4V57.82a0,0,0,0,1,0,0Z"/><path class="cls-3" d="M7.57,41.36v4.83c0,.28,0,.56,0,.84H56.4c0-.28,0-.56,0-.84V41.36Z"/><line class="cls-4" x1="16.99" y1="27.31" x2="18.53" y2="28.84"/><line class="cls-4" x1="31.13" y1="24.73" x2="30.13" y2="25.73"/><line class="cls-4" x1="45.59" y1="28.07" x2="44.27" y2="29.39"/><line class="cls-4" x1="32.46" y1="30.88" x2="33.33" y2="31.75"/><line class="cls-4" x1="22.14" y1="32.71" x2="23.34" y2="31.51"/><path class="cls-5" d="M22.51,23.64a2.17,2.17,0,0,1-1,.24,2,2,0,0,1-1.82-1.09l-1.2-2.24L11.06,6.6a2.07,2.07,0,0,1,3.65-1.95L20.88,16.2l-.27,4.42,0,.83a2.1,2.1,0,0,0,1,1.89A2.12,2.12,0,0,0,22.51,23.64Z"/><path class="cls-5" d="M25.8,3.38l-.9,14.84-.2,3.47a2.08,2.08,0,0,1-2.19,1.95,2.12,2.12,0,0,1-1-.3,2.1,2.1,0,0,1-1-1.89l0-.83.27-4.42.78-13.07a2.07,2.07,0,0,1,4.14.25Z"/></g><g id="Line"><path class="cls-6" d="M56.94,32.84a3.4,3.4,0,0,1-3.4,3.4,5.09,5.09,0,0,1-.55,0l0,0H10l0,0a3.4,3.4,0,0,1,.42-6.78h.09a5.2,5.2,0,0,1,5.18-6.16,5,5,0,0,1,1.4.21,2.93,2.93,0,0,1-.1-.67,2.49,2.49,0,0,1,1.49-2.27l1.2,2.24a2,2,0,0,0,1.82,1.09,2.17,2.17,0,0,0,1-.24,2.08,2.08,0,0,0,2.19-1.95l.2-3.47a4.14,4.14,0,0,1,2,.84,3.87,3.87,0,0,1,3.84-3.52,3.91,3.91,0,0,1,1.32.25,3.71,3.71,0,0,1,1.3-.25,3.87,3.87,0,0,1,3.84,3.52,4,4,0,0,1,2.48-.87,4,4,0,0,1,3.7,2.45A2.46,2.46,0,0,1,47,22.82a2.93,2.93,0,0,1-.1.67,5.08,5.08,0,0,1,1.42-.21,5.26,5.26,0,0,1,5.25,5.26,4.43,4.43,0,0,1-.09.9h.09A3.41,3.41,0,0,1,56.94,32.84Z"/><path class="cls-6" d="M7.57,36.24H56.44a0,0,0,0,1,0,0V46.58A11.24,11.24,0,0,1,45.2,57.82H18.81A11.24,11.24,0,0,1,7.57,46.58V36.24A0,0,0,0,1,7.57,36.24Z"/><path class="cls-6" d="M16.7,57.82H47.3a0,0,0,0,1,0,0V59.4a3.42,3.42,0,0,1-3.42,3.42H20.12A3.42,3.42,0,0,1,16.7,59.4V57.82a0,0,0,0,1,0,0Z"/><path class="cls-6" d="M7.57,41.36v4.83c0,.28,0,.56,0,.84H56.4c0-.28,0-.56,0-.84V41.36Z"/><line class="cls-6" x1="20.98" y1="52.78" x2="9.93" y2="52.78"/><line class="cls-6" x1="49.92" y1="52.78" x2="54.39" y2="52.78"/><line class="cls-6" x1="16.99" y1="27.31" x2="18.53" y2="28.84"/><line class="cls-6" x1="31.13" y1="24.73" x2="30.13" y2="25.73"/><line class="cls-6" x1="45.59" y1="28.07" x2="44.27" y2="29.39"/><line class="cls-6" x1="32.46" y1="30.88" x2="33.33" y2="31.75"/><line class="cls-6" x1="22.14" y1="32.71" x2="23.34" y2="31.51"/><path class="cls-6" d="M22.51,23.64a2.17,2.17,0,0,1-1,.24,2,2,0,0,1-1.82-1.09l-1.2-2.24L11.06,6.6a2.07,2.07,0,0,1,3.65-1.95L20.88,16.2l-.27,4.42,0,.83a2.1,2.1,0,0,0,1,1.89A2.12,2.12,0,0,0,22.51,23.64Z"/><path class="cls-6" d="M25.8,3.38l-.9,14.84-.2,3.47a2.08,2.08,0,0,1-2.19,1.95,2.12,2.12,0,0,1-1-.3,2.1,2.1,0,0,1-1-1.89l0-.83.27-4.42.78-13.07a2.07,2.07,0,0,1,4.14.25Z"/></g><g id="Shadow" class="cls-7"><path d="M36.48,36.24H37a5.27,5.27,0,0,1-.56,0Z"/><path d="M15.9,15.66a3.5,3.5,0,0,1,.86-.12,3.86,3.86,0,0,1,3.84,3.52,4,4,0,0,1,2.48-.87,4,4,0,0,1,3.7,2.45,2.54,2.54,0,0,1,1.17-.3,2.46,2.46,0,0,1,2.37,3.15,5.08,5.08,0,0,1,1.42-.21A5.27,5.27,0,0,1,37,28.54a4.43,4.43,0,0,1-.1.9H37a3.41,3.41,0,0,1,0,6.81H53l0,0a5.09,5.09,0,0,0,.55,0,3.41,3.41,0,0,0,0-6.81h-.09a4.43,4.43,0,0,0,.09-.9,5.26,5.26,0,0,0-5.25-5.26,5.08,5.08,0,0,0-1.42.21,2.93,2.93,0,0,0,.1-.67,2.46,2.46,0,0,0-3.64-2.18,4,4,0,0,0-3.7-2.45,4,4,0,0,0-2.48.87,3.87,3.87,0,0,0-3.84-3.52,3.71,3.71,0,0,0-1.3.25,3.91,3.91,0,0,0-1.32-.25,3.87,3.87,0,0,0-3.84,3.52,4.14,4.14,0,0,0-2-.84l.9-14.84a2.07,2.07,0,0,0-4.14-.25L20.88,16.2,14.71,4.65A2.07,2.07,0,0,0,11.06,6.6Z"/><path d="M39.89,41.36v5.22A11.24,11.24,0,0,1,28.65,57.82h2.1V59.4a3.41,3.41,0,0,1-3.41,3.41H43.89A3.41,3.41,0,0,0,47.3,59.4V57.82H45.2A11.24,11.24,0,0,0,56.44,46.58V36.24H39.89Z"/></g><g id="Highligth" class="cls-8"><path class="cls-9" d="M10,36.21l0,0H25.37l0,0a3.4,3.4,0,0,1,.42-6.78h.09a5.2,5.2,0,0,1,5.18-6.16,5,5,0,0,1,1.4.21,2.44,2.44,0,0,1,1.39-2.94l-2.66-5a3,3,0,0,0-.52-.05,3.87,3.87,0,0,0-3.84,3.52,4.14,4.14,0,0,0-2-.84l.9-14.84a2.07,2.07,0,0,0-4.14-.25L20.88,16.2,14.71,4.65A2.07,2.07,0,0,0,11.06,6.6l7.46,14A2.49,2.49,0,0,0,17,22.82a2.93,2.93,0,0,0,.1.67,5,5,0,0,0-1.4-.21,5.2,5.2,0,0,0-5.18,6.16h-.09A3.4,3.4,0,0,0,10,36.21Z"/><path class="cls-9" d="M32.05,59.4V57.82h2.1A11.24,11.24,0,0,1,22.91,46.58V36.24H7.57V46.58A11.24,11.24,0,0,0,18.81,57.82H16.7V59.4a3.42,3.42,0,0,0,3.42,3.41H35.47A3.42,3.42,0,0,1,32.05,59.4Z"/></g></g></g></svg>